PathFileType	4	(X/Y/Z)	/Users/itak/Documents/Research/Walk-IL/dataset/trc/00529_00183.trc
DataRate	CameraRate	NumFrames	NumMarkers	Units	OrigDataRate	OrigDataStartFrame	OrigNumFrames
100.000000	100.000000	4	53	mm	100.000000	60	481
Frame#	Time	RPSI			LPSI			L3			STRN			T10			C7			CLAV			RBAK			LBAK			LSHO			LUPA			LAEL			LAOL			LWTS			LWPS			LFRA			LIFD			LHPS			LHTS			RSHO			RUPA			RAEL			RAOL			RWTS			RWPS			RFRA			RIFD			RHTS			RHPS			RBHD			LFHD			RFHD			LBHD			LHIP			RHIP			RASI			LASI			LKNE			LTHI			LANK			LTIP			LTOE			LMT1			LMT5			LHEE			RKNE			RTHI			RANK			RTIP			RTOE			RMT1			RMT5			RHEE			
		X1	Y1	Z1	X2	Y2	Z2	X3	Y3	Z3	X4	Y4	Z4	X5	Y5	Z5	X6	Y6	Z6	X7	Y7	Z7	X8	Y8	Z8	X9	Y9	Z9	X10	Y10	Z10	X11	Y11	Z11	X12	Y12	Z12	X13	Y13	Z13	X14	Y14	Z14	X15	Y15	Z15	X16	Y16	Z16	X17	Y17	Z17	X18	Y18	Z18	X19	Y19	Z19	X20	Y20	Z20	X21	Y21	Z21	X22	Y22	Z22	X23	Y23	Z23	X24	Y24	Z24	X25	Y25	Z25	X26	Y26	Z26	X27	Y27	Z27	X28	Y28	Z28	X29	Y29	Z29	X30	Y30	Z30	X31	Y31	Z31	X32	Y32	Z32	X33	Y33	Z33	X34	Y34	Z34	X35	Y35	Z35	X36	Y36	Z36	X37	Y37	Z37	X38	Y38	Z38	X39	Y39	Z39	X40	Y40	Z40	X41	Y41	Z41	X42	Y42	Z42	X43	Y43	Z43	X44	Y44	Z44	X45	Y45	Z45	X46	Y46	Z46	X47	Y47	Z47	X48	Y48	Z48	X49	Y49	Z49	X50	Y50	Z50	X51	Y51	Z51	X52	Y52	Z52	X53	Y53	Z53	

61	0.6	-1154.976196289062	973.477783203125	-368.8271789550781	-1093.098999023438	971.399658203125	-476.4442749023438	-1128.448974609375	1037.901733398438	-430.3293762207031	-928.2727661132812	1199.85693359375	-333.1350708007812	-1144.054443359375	1142.3603515625	-435.98974609375	-1102.697143554688	1373.081298828125	-412.2960815429688	-961.5848999023438	1294.849975585938	-349.4525146484375	-1182.51513671875	1250.058349609375	-356.8787841796875	-1088.475341796875	1320.199462890625	-501.4866943359375	-971.3528442382812	1365.677734375	-528.1959838867188	-957.980224609375	1240.321655273438	-590.5484008789062	-936.2808227539062	1030.596069335938	-612.007080078125	-1030.266845703125	1021.020446777344	-579.8103637695312	-870.0838012695312	841.3510131835938	-546.79248046875	-930.9251708984375	808.1843872070312	-610.7774658203125	-921.3345947265625	945.873779296875	-607.4373168945312	-877.2625122070312	683.54638671875	-542.653564453125	-910.1871948242188	754.4546508789062	-600.3878784179688	-856.7750244140625	762.7765502929688	-564.4110717773438	-1116.542724609375	1364.800048828125	-255.1339263916016	-1157.170166015625	1296.793701171875	-210.9144134521484	-1162.665283203125	1027.615966796875	-170.6283111572266	-1195.122192382812	1011.09814453125	-226.5700378417969	-1052.222290039062	828.6627807617188	-159.4936218261719	-1139.624145507812	803.7354125976562	-150.2958984375	-1158.970581054688	973.0271606445312	-162.5372009277344	-1047.66845703125	668.2019653320312	-156.1390228271484	-1047.24462890625	735.3082885742188	-131.1578521728516	-1117.008422851562	730.8737182617188	-140.8816833496094	-1104.923217773438	1526.443969726562	-322.1601867675781	-929.7198486328125	1592.667114257812	-394.6925354003906	-988.6311645507812	1588.906494140625	-281.5899658203125	-1044.620361328125	1525.79638671875	-469.3312377929688	-936.1408081054688	896.984130859375	-539.44482421875	-1124.594848632812	868.8775634765625	-212.4639434814453	-1004.232299804688	909.5173950195312	-220.5250091552734	-891.4603271484375	924.283935546875	-434.2496948242188	-970.883056640625	471.756591796875	-506.8035278320312	-941.3668212890625	630.1377563476562	-520.100341796875	-1081.699462890625	51.15834426879883	-534.1558837890625	-1007.261108398438	322.0404052734375	-522.6050415039062	-924.2459716796875	39.21067428588867	-402.5883178710938	-1008.992065429688	42.75172424316406	-402.1408386230469	-977.2567749023438	42.83246231079102	-500.1479797363281	-1149.807739257812	47.93281555175781	-497.741455078125	-1136.767822265625	483.03857421875	-241.1022033691406	-1113.06787109375	740.3338623046875	-197.7345428466797	-1197.328247070312	53.32131576538086	-298.8214111328125	-1137.79736328125	340.0776062011719	-258.3214111328125	-995.6665649414062	42.31440353393555	-252.97607421875	-1041.269165039062	46.40423965454102	-316.4715270996094	-1098.906494140625	51.32633209228516	-239.8921813964844	-1225.6865234375	42.24361038208008	-363.7516174316406	
62	0.61	-1154.338012695312	973.4735717773438	-369.1026306152344	-1092.456665039062	971.4130249023438	-476.638671875	-1127.801879882812	1037.855712890625	-430.51416015625	-927.65283203125	1199.858032226562	-333.2545776367188	-1143.420776367188	1142.30859375	-436.1981811523438	-1102.126342773438	1373.026977539062	-412.559814453125	-961.0501708984375	1294.830444335938	-349.6272277832031	-1181.968017578125	1249.989990234375	-357.1524353027344	-1087.861694335938	1320.110229492188	-501.6831970214844	-970.7135620117188	1365.615844726562	-528.3433837890625	-957.3224487304688	1240.22998046875	-590.6950073242188	-935.5359497070312	1030.541381835938	-612.0700073242188	-1029.493408203125	1020.926208496094	-579.9034423828125	-869.3626708984375	841.2953491210938	-546.8394775390625	-930.0662841796875	808.1346435546875	-610.7974853515625	-920.5370483398438	945.7824096679688	-607.4749755859375	-876.4727783203125	683.5718383789062	-542.6685180664062	-909.4200439453125	754.3797607421875	-600.328369140625	-855.89404296875	762.811279296875	-564.3226928710938	-1116.06982421875	1364.764526367188	-255.3931579589844	-1156.715209960938	1296.746459960938	-211.1645812988281	-1162.074340820312	1027.552001953125	-170.8753662109375	-1194.51171875	1011.022521972656	-226.8554992675781	-1051.454467773438	828.7322998046875	-159.7782135009766	-1138.8427734375	803.6942138671875	-150.5163269042969	-1158.339233398438	972.9585571289062	-162.8164215087891	-1046.740600585938	668.2605590820312	-156.3282165527344	-1046.388916015625	735.3700561523438	-131.373779296875	-1116.128784179688	730.8530883789062	-141.1022796630859	-1104.178100585938	1526.540283203125	-322.2646179199219	-928.8532104492188	1592.402465820312	-394.6656494140625	-987.7096557617188	1588.70703125	-281.5718383789062	-1043.881713867188	1525.957885742188	-469.4041748046875	-935.5940551757812	896.874267578125	-539.5888061523438	-1124.239501953125	869.0819091796875	-212.8701934814453	-1003.678039550781	909.484619140625	-220.6626586914062	-890.7857666015625	924.2039184570312	-434.3324279785156	-970.5713500976562	471.6752014160156	-506.8920593261719	-940.7870483398438	630.0660400390625	-520.123046875	-1081.679565429688	51.13146591186523	-534.1735229492188	-1007.07177734375	321.9484558105469	-522.6874389648438	-924.24267578125	39.19966888427734	-402.5718078613281	-1008.992431640625	42.7702751159668	-402.1571044921875	-977.2432861328125	42.81414794921875	-500.1742248535156	-1149.796508789062	47.94591522216797	-497.7647705078125	-1136.382690429688	483.0799560546875	-241.2405700683594	-1112.451293945312	740.353759765625	-197.8665771484375	-1197.305908203125	53.37286758422852	-298.8498840332031	-1137.53515625	340.1006164550781	-258.3986511230469	-995.6640014648438	42.2994270324707	-252.9906463623047	-1041.258544921875	46.37763595581055	-316.488525390625	-1098.891845703125	51.34034729003906	-239.9124908447266	-1225.6630859375	42.29740142822266	-363.7931823730469	
63	0.62	-1153.706420898438	973.4724731445312	-369.3565368652344	-1091.812866210938	971.4244995117188	-476.8258056640625	-1127.170288085938	1037.801025390625	-430.7021179199219	-927.0388793945312	1199.863037109375	-333.3748474121094	-1142.802734375	1142.2451171875	-436.4037475585938	-1101.568603515625	1372.962890625	-412.830322265625	-960.5313720703125	1294.806640625	-349.8030395507812	-1181.432739257812	1249.914306640625	-357.4213562011719	-1087.266967773438	1320.020874023438	-501.8849182128906	-970.099609375	1365.550659179688	-528.4910888671875	-956.672119140625	1240.117431640625	-590.8265991210938	-934.80615234375	1030.466064453125	-612.1016845703125	-1028.721069335938	1020.827941894531	-579.9669799804688	-868.59765625	841.24169921875	-546.8387451171875	-929.1768798828125	808.0503540039062	-610.78125	-919.7279052734375	945.6849365234375	-607.4762573242188	-875.6815795898438	683.58154296875	-542.6079711914062	-908.6511840820312	754.265380859375	-600.2166748046875	-855.0115356445312	762.830810546875	-564.158935546875	-1115.616455078125	1364.72607421875	-255.6490173339844	-1156.267944335938	1296.701416015625	-211.4156036376953	-1161.506103515625	1027.489868164062	-171.1180572509766	-1193.927734375	1010.9443359375	-227.1123504638672	-1050.725219726562	828.800048828125	-160.0317993164062	-1138.099609375	803.6609497070312	-150.7107238769531	-1157.738159179688	972.8917846679688	-163.0757141113281	-1045.852416992188	668.3131103515625	-156.4886474609375	-1045.589233398438	735.4270629882812	-131.538330078125	-1115.294921875	730.838134765625	-141.2916107177734	-1103.471313476562	1526.617919921875	-322.371337890625	-928.0203247070312	1592.14111328125	-394.6577453613281	-986.8336791992188	1588.515380859375	-281.5509033203125	-1043.196044921875	1526.100463867188	-469.4902038574219	-935.0142822265625	896.738037109375	-539.7168579101562	-1123.9892578125	869.33740234375	-213.3088531494141	-1003.14111328125	909.446044921875	-220.7844696044922	-890.1388549804688	924.1249389648438	-434.4157409667969	-970.2894287109375	471.5970764160156	-506.985595703125	-940.2179565429688	629.9818725585938	-520.1099853515625	-1081.65966796875	51.10488510131836	-534.1895141601562	-1006.883850097656	321.8447875976562	-522.7861328125	-924.2424926757812	39.18944549560547	-402.5512390136719	-1008.990783691406	42.78642272949219	-402.171875	-977.2333374023438	42.79888153076172	-500.1970520019531	-1149.783325195312	47.95576858520508	-497.7901000976562	-1136.017211914062	483.116943359375	-241.3689880371094	-1111.888671875	740.3825073242188	-197.9458770751953	-1197.28515625	53.41986465454102	-298.874755859375	-1137.285034179688	340.1178283691406	-258.4742126464844	-995.6583251953125	42.28892135620117	-253.0027313232422	-1041.250122070312	46.34720993041992	-316.5063171386719	-1098.879272460938	51.35184860229492	-239.9315948486328	-1225.639038085938	42.34171676635742	-363.8385620117188	
64	0.63	-1153.087768554688	973.4715576171875	-369.5796203613281	-1091.165893554688	971.427734375	-477.0177612304688	-1126.556396484375	1037.73681640625	-430.8941345214844	-926.4434814453125	1199.866943359375	-333.4943237304688	-1142.200927734375	1142.169311523438	-436.6115112304688	-1101.025146484375	1372.888671875	-413.0994873046875	-960.0209350585938	1294.77490234375	-349.9822692871094	-1180.9033203125	1249.831665039062	-357.6893310546875	-1086.692138671875	1319.932983398438	-502.0887451171875	-969.5079956054688	1365.480712890625	-528.6409301757812	-956.0264282226562	1239.989624023438	-590.9443969726562	-934.0897827148438	1030.372192382812	-612.104248046875	-1027.956420898438	1020.727233886719	-580.00927734375	-867.796630859375	841.1919555664062	-546.7838745117188	-928.2736206054688	807.9326782226562	-610.7300415039062	-918.9151000976562	945.5838012695312	-607.443359375	-874.895263671875	683.5818481445312	-542.495361328125	-907.8615112304688	754.1202392578125	-600.0674438476562	-854.1370239257812	762.83984375	-563.9425048828125	-1115.179443359375	1364.681030273438	-255.8961334228516	-1155.82275390625	1296.657836914062	-211.670166015625	-1160.960693359375	1027.427978515625	-171.3549041748047	-1193.371215820312	1010.861999511719	-227.3399200439453	-1050.02978515625	828.8605346679688	-160.2593383789062	-1137.389892578125	803.6324462890625	-150.8836822509766	-1157.168090820312	972.8257446289062	-163.3083953857422	-1044.99658203125	668.3576049804688	-156.6345825195312	-1044.836181640625	735.4767456054688	-131.6644897460938	-1114.499877929688	730.8233032226562	-141.4577026367188	-1102.803833007812	1526.672485351562	-322.4730224609375	-927.2259521484375	1591.88818359375	-394.6745300292969	-986.0040893554688	1588.326538085938	-281.5298156738281	-1042.559448242188	1526.214965820312	-469.5876159667969	-934.3671264648438	896.58740234375	-539.8145751953125	-1123.761962890625	869.564208984375	-213.7077941894531	-1002.617370605469	909.4017333984375	-220.8974151611328	-889.5262451171875	924.0520629882812	-434.4992980957031	-970.044189453125	471.5194396972656	-507.0885925292969	-939.64599609375	629.890380859375	-520.068115234375	-1081.641723632812	51.07920837402344	-534.2024536132812	-1006.696594238281	321.7360229492188	-522.8953247070312	-924.2456665039062	39.17871475219727	-402.5274963378906	-1008.98779296875	42.7999267578125	-402.1842041015625	-977.2274780273438	42.786865234375	-500.2153930664062	-1149.77001953125	47.96298980712891	-497.8139038085938	-1135.672119140625	483.1485900878906	-241.4884948730469	-1111.385131835938	740.4169311523438	-197.9677886962891	-1197.265747070312	53.46099853515625	-298.8973693847656	-1137.047119140625	340.1288757324219	-258.5490112304688	-995.651611328125	42.283203125	-253.0094757080078	-1041.24267578125	46.31490707397461	-316.5251770019531	-1098.868041992188	51.36143493652344	-239.9493560791016	-1225.616088867188	42.37666702270508	-363.8858947753906	
